<mxfile host="65bd71144e">
    <diagram id="HIP3nbAZw_EuaXWnEj3U" name="Page-1">
        <mxGraphModel dx="446" dy="332" grid="1" gridSize="10" guides="1" tooltips="1" connect="1" arrows="1" fold="1" page="1" pageScale="1" pageWidth="850" pageHeight="1100" math="0" shadow="0">
            <root>
                <mxCell id="0"/>
                <mxCell id="1" parent="0"/>
                <mxCell id="15" style="edgeStyle=orthogonalEdgeStyle;html=1;rounded=0;verticalAlign=middle;" parent="1" source="16" edge="1">
                    <mxGeometry relative="1" as="geometry">
                        <mxPoint x="290" y="440" as="targetPoint"/>
                    </mxGeometry>
                </mxCell>
                <mxCell id="16" value="Start" style="strokeWidth=2;html=1;shape=mxgraph.flowchart.terminator;whiteSpace=wrap;" parent="1" vertex="1">
                    <mxGeometry x="240" y="320" width="100" height="60" as="geometry"/>
                </mxCell>
                <mxCell id="17" value="Volume of a Sphere Function" style="text;strokeColor=none;align=center;fillColor=none;html=1;verticalAlign=middle;whiteSpace=wrap;rounded=0;" parent="1" vertex="1">
                    <mxGeometry x="240" y="270" width="100" height="30" as="geometry"/>
                </mxCell>
                <mxCell id="18" style="edgeStyle=orthogonalEdgeStyle;html=1;rounded=0;verticalAlign=middle;" parent="1" edge="1">
                    <mxGeometry relative="1" as="geometry">
                        <mxPoint x="289.6" y="500" as="sourcePoint"/>
                        <mxPoint x="289.6" y="560" as="targetPoint"/>
                    </mxGeometry>
                </mxCell>
                <mxCell id="19" value="Calculate Volume =&amp;nbsp;&lt;div&gt;&lt;span style=&quot;background-color: transparent; font-size: 12px;&quot;&gt;&lt;font color=&quot;#000000&quot;&gt;(4 / 3) x π x r³&lt;/font&gt;&lt;/span&gt;&lt;div&gt;&lt;span style=&quot;background-color: transparent;&quot;&gt;&lt;div&gt;&lt;br&gt;&lt;/div&gt;&lt;/span&gt;&lt;/div&gt;&lt;/div&gt;" style="whiteSpace=wrap;html=1;" parent="1" vertex="1">
                    <mxGeometry x="230" y="560" width="120" height="60" as="geometry"/>
                </mxCell>
                <mxCell id="20" style="edgeStyle=orthogonalEdgeStyle;html=1;rounded=0;verticalAlign=middle;" parent="1" edge="1">
                    <mxGeometry relative="1" as="geometry">
                        <mxPoint x="290" y="620" as="sourcePoint"/>
                        <mxPoint x="290" y="680" as="targetPoint"/>
                    </mxGeometry>
                </mxCell>
                <mxCell id="21" value="Stop" style="strokeWidth=2;html=1;shape=mxgraph.flowchart.terminator;whiteSpace=wrap;" parent="1" vertex="1">
                    <mxGeometry x="240" y="800" width="100" height="60" as="geometry"/>
                </mxCell>
                <mxCell id="22" style="edgeStyle=orthogonalEdgeStyle;html=1;rounded=0;verticalAlign=middle;" parent="1" edge="1">
                    <mxGeometry relative="1" as="geometry">
                        <mxPoint x="289.7" y="740" as="sourcePoint"/>
                        <mxPoint x="289.7" y="800" as="targetPoint"/>
                        <Array as="points">
                            <mxPoint x="289.7" y="780"/>
                            <mxPoint x="289.7" y="780"/>
                        </Array>
                    </mxGeometry>
                </mxCell>
                <mxCell id="23" value="&lt;span style=&quot;font-size: 10px;&quot;&gt;use query to get radius&lt;/span&gt;" style="shape=parallelogram;perimeter=parallelogramPerimeter;whiteSpace=wrap;html=1;fixedSize=1;" parent="1" vertex="1">
                    <mxGeometry x="230" y="440" width="120" height="60" as="geometry"/>
                </mxCell>
                <mxCell id="24" value="&lt;span style=&quot;color: rgb(0, 0, 0); font-size: 10px;&quot;&gt;Show Volume&lt;/span&gt;" style="shape=parallelogram;perimeter=parallelogramPerimeter;whiteSpace=wrap;html=1;fixedSize=1;" parent="1" vertex="1">
                    <mxGeometry x="230" y="680" width="120" height="60" as="geometry"/>
                </mxCell>
            </root>
        </mxGraphModel>
    </diagram>
</mxfile>